<?xml version="1.0" standalone="no"?><!DOCTYPE svg PUBLIC "-//W3C//DTD SVG 1.1//EN" "http://www.w3.org/Graphics/SVG/1.1/DTD/svg11.dtd">
<svg x="0.0000mm" y="0.0000mm" width="100.0120mm" height="26.4580mm" viewBox="0.0000 0.0000 100.0120 26.4580" version="1.1" xmlns="http://www.w3.org/2000/svg" shape-rendering="crispEdges">
<title>TBarCode - 11.15.0.16817</title>
<desc>BarCode licensed to MEM:TEC-IT Datenverarbeitung GmbH Internal License</desc>
<g fill="rgb(18%,31%,31%)">
<rect x="0.0000" y="0.0000" width="1.0583" height="26.4580" />
<rect x="1.5875" y="0.0000" width="0.5292" height="26.4580" />
<rect x="3.1750" y="0.0000" width="0.5292" height="26.4580" />
<rect x="5.8208" y="0.0000" width="1.0583" height="26.4580" />
<rect x="8.9958" y="0.0000" width="0.5292" height="26.4580" />
<rect x="10.5833" y="0.0000" width="0.5292" height="26.4580" />
<rect x="11.6416" y="0.0000" width="0.5292" height="26.4580" />
<rect x="12.6999" y="0.0000" width="1.0583" height="26.4580" />
<rect x="14.8166" y="0.0000" width="0.5292" height="26.4580" />
<rect x="17.4624" y="0.0000" width="2.1167" height="26.4580" />
<rect x="20.1082" y="0.0000" width="0.5292" height="26.4580" />
<rect x="21.6957" y="0.0000" width="0.5292" height="26.4580" />
<rect x="23.2832" y="0.0000" width="0.5292" height="26.4580" />
<rect x="25.9290" y="0.0000" width="1.0583" height="26.4580" />
<rect x="27.5165" y="0.0000" width="0.5292" height="26.4580" />
<rect x="29.1040" y="0.0000" width="1.0583" height="26.4580" />
<rect x="32.2790" y="0.0000" width="0.5292" height="26.4580" />
<rect x="33.3373" y="0.0000" width="0.5292" height="26.4580" />
<rect x="34.9248" y="0.0000" width="0.5292" height="26.4580" />
<rect x="36.5123" y="0.0000" width="2.1167" height="26.4580" />
<rect x="39.1581" y="0.0000" width="0.5292" height="26.4580" />
<rect x="40.7456" y="0.0000" width="0.5292" height="26.4580" />
<rect x="42.3331" y="0.0000" width="1.0583" height="26.4580" />
<rect x="45.5081" y="0.0000" width="0.5292" height="26.4580" />
<rect x="46.5664" y="0.0000" width="0.5292" height="26.4580" />
<rect x="48.1539" y="0.0000" width="2.1167" height="26.4580" />
<rect x="51.3289" y="0.0000" width="0.5292" height="26.4580" />
<rect x="52.3872" y="0.0000" width="0.5292" height="26.4580" />
<rect x="53.9747" y="0.0000" width="1.0583" height="26.4580" />
<rect x="57.1497" y="0.0000" width="0.5292" height="26.4580" />
<rect x="58.2080" y="0.0000" width="0.5292" height="26.4580" />
<rect x="59.2664" y="0.0000" width="2.1167" height="26.4580" />
<rect x="62.4414" y="0.0000" width="0.5292" height="26.4580" />
<rect x="64.0288" y="0.0000" width="0.5292" height="26.4580" />
<rect x="65.6163" y="0.0000" width="2.1167" height="26.4580" />
<rect x="68.2622" y="0.0000" width="0.5292" height="26.4580" />
<rect x="69.8497" y="0.0000" width="0.5292" height="26.4580" />
<rect x="72.4955" y="0.0000" width="1.0583" height="26.4580" />
<rect x="74.0830" y="0.0000" width="0.5292" height="26.4580" />
<rect x="75.6705" y="0.0000" width="1.0583" height="26.4580" />
<rect x="78.8454" y="0.0000" width="0.5292" height="26.4580" />
<rect x="79.9038" y="0.0000" width="0.5292" height="26.4580" />
<rect x="81.4913" y="0.0000" width="1.0583" height="26.4580" />
<rect x="84.6662" y="0.0000" width="0.5292" height="26.4580" />
<rect x="86.2537" y="0.0000" width="0.5292" height="26.4580" />
<rect x="87.3121" y="0.0000" width="0.5292" height="26.4580" />
<rect x="89.4287" y="0.0000" width="1.5875" height="26.4580" />
<rect x="91.5454" y="0.0000" width="1.0583" height="26.4580" />
<rect x="93.1329" y="0.0000" width="1.0583" height="26.4580" />
<rect x="95.7787" y="0.0000" width="1.5875" height="26.4580" />
<rect x="97.8953" y="0.0000" width="0.5292" height="26.4580" />
<rect x="98.9537" y="0.0000" width="1.0583" height="26.4580" />
</g>
</svg>
